# xmcd CD database file generated by Grip 2.5
# 
# Track frame offsets:
#       150
#       11772
#       26612
#       39412
#       50367
#       64862
#       80617
#       98027
#       115277
#       128782
#       140802
#       157737
#       175105
#       188215
# 
# Disc length: 2720 seconds
# 
# Revision: 3
# Processed by: cddbd v1.4b41PL1 Copyright (c) Steve Scherf et al.
# Submitted via: Grip 2.5
# 
DISCID=b60a9e0e
DTITLE=Bobby Womack - Lookin' For A Love - The Best of Bobby Womack 1968 -1975
DYEAR=1900
DGENRE=
TTITLE0=What Is This?
TTITLE1=How I Miss You Baby
TTITLE2=More Than I Can Stand
TTITLE3=I'm Gonna Forget About You
TTITLE4=That's the Way I Feel About 'Cha
TTITLE5=Woman's Gotta Have It
TTITLE6=Harry Hippie
TTITLE7=Across 110th Street
TTITLE8=Nobody Wants You When You're Down And Out
TTITLE9=Lookin' For A Love
TTITLE10=You're Welcome, Stop On By
TTITLE11=Check It Out
TTITLE12=It's All Over Now
TTITLE13=Daylight
EXTD=
EXTT0=
EXTT1=
EXTT2=
EXTT3=
EXTT4=
EXTT5=
EXTT6=
EXTT7=
EXTT8=
EXTT9=
EXTT10=
EXTT11=
EXTT12=
EXTT13=
PLAYORDER=
